<svg width="32" height="32" viewBox="0 0 32 32" fill="none" xmlns="http://www.w3.org/2000/svg">
<path fill-rule="evenodd" clip-rule="evenodd" d="M16 31.9999C12.8355 31.9999 9.74209 31.0617 7.1109 29.3036C4.47972 27.5455 2.42896 25.0466 1.21796 22.123C0.00695515 19.1993 -0.309929 15.982 0.307435 12.8783C0.924798 9.77463 2.44864 6.92408 4.68628 4.68644C6.92392 2.4488 9.77484 0.924893 12.8785 0.30753C15.9822 -0.309834 19.1993 0.00668371 22.1229 1.21769C25.0465 2.42869 27.5454 4.47957 29.3035 7.11075C31.0616 9.74194 32 12.8354 32 15.9999C32 20.2434 30.3143 24.3128 27.3137 27.3134C24.3131 30.314 20.2435 31.9999 16 31.9999ZM16 2.99991C13.4288 2.99991 10.9154 3.76237 8.77759 5.19083C6.63975 6.61929 4.9735 8.64938 3.98956 11.0248C3.00562 13.4003 2.74821 16.0143 3.24982 18.536C3.75143 21.0578 4.98954 23.3742 6.80762 25.1923C8.6257 27.0104 10.9421 28.2483 13.4638 28.7499C15.9856 29.2515 18.5995 28.9941 20.9749 28.0102C23.3504 27.0262 25.3806 25.3604 26.8091 23.2226C28.2375 21.0847 29 18.5711 29 15.9999C29 12.5521 27.6304 9.2455 25.1924 6.80753C22.7544 4.36956 19.4478 2.99991 16 2.99991V2.99991ZM16 25.4999C14.1211 25.4999 12.2844 24.9427 10.7221 23.8988C9.15984 22.855 7.94218 21.3711 7.22315 19.6352C6.50411 17.8993 6.316 15.9892 6.68256 14.1464C7.04912 12.3036 7.95387 10.6112 9.28247 9.28263C10.6111 7.95403 12.3038 7.04909 14.1467 6.68253C15.9895 6.31597 17.8996 6.50402 19.6355 7.22306C21.3714 7.94209 22.8551 9.15981 23.899 10.7221C24.9429 12.2843 25.5 14.121 25.5 15.9999C25.5 18.5195 24.4991 20.9356 22.7175 22.7172C20.9359 24.4988 18.5196 25.4999 16 25.4999V25.4999ZM16 9.49991C14.7144 9.49991 13.4577 9.8809 12.3888 10.5951C11.3199 11.3094 10.4868 12.3249 9.99481 13.5126C9.50284 14.7003 9.37407 16.0071 9.62488 17.268C9.87568 18.5289 10.4948 19.6871 11.4038 20.5961C12.3129 21.5051 13.4711 22.1241 14.7319 22.3749C15.9928 22.6257 17.2997 22.4973 18.4874 22.0053C19.6751 21.5133 20.6903 20.6802 21.4045 19.6112C22.1188 18.5423 22.5 17.2855 22.5 15.9999C22.5 14.276 21.8152 12.6227 20.5962 11.4037C19.3772 10.1847 17.7239 9.49991 16 9.49991V9.49991ZM16 18.9999C15.4067 18.9999 14.8267 18.8242 14.3333 18.4945C13.84 18.1649 13.4554 17.696 13.2283 17.1479C13.0013 16.5997 12.9419 15.9964 13.0576 15.4145C13.1734 14.8325 13.4591 14.2984 13.8787 13.8788C14.2982 13.4593 14.8328 13.1733 15.4147 13.0575C15.9967 12.9418 16.5999 13.0014 17.1481 13.2284C17.6962 13.4555 18.1647 13.8401 18.4944 14.3334C18.824 14.8268 19 15.4066 19 15.9999C19 16.7956 18.6839 17.5584 18.1213 18.121C17.5587 18.6836 16.7956 18.9999 16 18.9999Z" fill="#95E1D3"/>
</svg>
