<svg width="26" height="26" viewBox="0 0 26 26" fill="none" xmlns="http://www.w3.org/2000/svg">
<path fill-rule="evenodd" clip-rule="evenodd" d="M22.4 25.5996H3.20001C2.35132 25.5996 1.53737 25.2627 0.937256 24.6626C0.337139 24.0625 0 23.2486 0 22.3999V3.19971C0 2.35101 0.337139 1.53713 0.937256 0.937012C1.53737 0.336895 2.35132 0 3.20001 0H22.4C23.2487 0 24.0627 0.336895 24.6628 0.937012C25.2629 1.53713 25.6 2.35101 25.6 3.19971V22.3999C25.6 23.2486 25.2629 24.0625 24.6628 24.6626C24.0627 25.2627 23.2487 25.5996 22.4 25.5996ZM12.8 7.83984C11.8531 7.83964 10.926 8.11067 10.1285 8.62109C9.33095 9.13151 8.6964 9.85982 8.29999 10.7197V10.7197C8.29455 10.7372 8.2872 10.7542 8.27802 10.77C8.23102 10.88 8.19002 10.9896 8.15002 11.0996C8.13102 11.1496 8.11002 11.2 8.09302 11.25C8.05602 11.36 8.02604 11.4798 7.99304 11.5898C7.97904 11.6398 7.96299 11.7 7.95099 11.75C7.92499 11.87 7.90701 11.9996 7.89001 12.1196C7.88301 12.1696 7.873 12.22 7.867 12.27C7.8481 12.4461 7.83843 12.6228 7.83801 12.7998C7.83801 13.4512 7.96631 14.096 8.21558 14.6978C8.46484 15.2995 8.83019 15.8466 9.29077 16.3071C9.75135 16.7677 10.2981 17.1331 10.8999 17.3823C11.5017 17.6316 12.1467 17.7598 12.798 17.7598C13.4494 17.7598 14.0943 17.6316 14.6961 17.3823C15.2979 17.1331 15.8447 16.7677 16.3052 16.3071C16.7658 15.8466 17.1312 15.2995 17.3804 14.6978C17.6297 14.096 17.758 13.4512 17.758 12.7998C17.7576 12.6228 17.7479 12.4461 17.729 12.27C17.723 12.22 17.713 12.1696 17.706 12.1196C17.689 11.9996 17.671 11.87 17.645 11.75C17.633 11.7 17.617 11.6398 17.603 11.5898C17.575 11.4798 17.545 11.36 17.503 11.25C17.486 11.2 17.465 11.1496 17.446 11.0996C17.406 10.9896 17.365 10.88 17.318 10.77C17.3088 10.7542 17.3015 10.7372 17.296 10.7197V10.7197C16.8999 9.86044 16.266 9.13244 15.4692 8.62207C14.6725 8.1117 13.7462 7.84041 12.8 7.83984V7.83984ZM22.72 4.15967C22.7203 3.9915 22.6873 3.82485 22.6231 3.66943C22.5589 3.51402 22.4646 3.37282 22.3457 3.25391C22.2268 3.13499 22.0856 3.0408 21.9302 2.97656C21.7748 2.91233 21.6082 2.87962 21.44 2.87988H18.88C18.7118 2.87962 18.5453 2.91233 18.3899 2.97656C18.2345 3.0408 18.0932 3.13499 17.9743 3.25391C17.8554 3.37282 17.7611 3.51402 17.6969 3.66943C17.6327 3.82485 17.5998 3.9915 17.6 4.15967V6.71973C17.5998 6.88789 17.6327 7.05455 17.6969 7.20996C17.7611 7.36538 17.8554 7.50658 17.9743 7.62549C18.0932 7.7444 18.2345 7.8386 18.3899 7.90283C18.5453 7.96706 18.7118 8.00026 18.88 8H21.44C21.6082 8.00026 21.7748 7.96706 21.9302 7.90283C22.0856 7.8386 22.2268 7.7444 22.3457 7.62549C22.4646 7.50658 22.5589 7.36538 22.6231 7.20996C22.6873 7.05455 22.7203 6.88789 22.72 6.71973V4.15967ZM22.72 10.7197H20.36C20.6796 11.8833 20.7263 13.1049 20.4965 14.2896C20.2666 15.4742 19.7664 16.5897 19.0348 17.5493C18.3032 18.509 17.36 19.2869 16.2786 19.8223C15.1971 20.3577 14.0067 20.6362 12.8 20.6362C11.5933 20.6362 10.4029 20.3577 9.32147 19.8223C8.24005 19.2869 7.29678 18.509 6.56519 17.5493C5.83359 16.5897 5.33343 15.4742 5.10358 14.2896C4.87372 13.1049 4.92038 11.8833 5.23999 10.7197H2.88V21.4399C2.87974 21.6081 2.9127 21.7748 2.97693 21.9302C3.04116 22.0856 3.13542 22.2268 3.25433 22.3457C3.37324 22.4646 3.51445 22.5588 3.66986 22.623C3.82528 22.6873 3.99187 22.72 4.16003 22.7197H21.44C21.6082 22.72 21.7748 22.6873 21.9302 22.623C22.0856 22.5588 22.2268 22.4646 22.3457 22.3457C22.4646 22.2268 22.5589 22.0856 22.6231 21.9302C22.6873 21.7748 22.7203 21.6081 22.72 21.4399V10.7197V10.7197Z" fill="#F38181"/>
</svg>
