<svg width="121" height="14" viewBox="0 0 121 14" fill="none" xmlns="http://www.w3.org/2000/svg">
<path d="M9.42307 1.28846V7.92308C9.42307 10.1346 8.46154 11.0481 6.15384 11.0481C3.84615 11.0481 2.88461 10.1346 2.88461 7.92308V1H0.673075C0.528844 1 0.384613 1.14423 0.384613 1.28846V8.01923C0.384613 11.7212 2.74038 13.0192 6.15384 13.0192C9.56731 13.0192 11.9231 11.7212 11.9231 8.01923V1H9.71154C9.56731 1 9.42307 1.09615 9.42307 1.28846Z" fill="black"/>
<path d="M41.5865 2.92308C41.7789 2.92308 41.875 2.875 41.9231 2.73077L42.5481 1.14423C42.5962 1.04808 42.5481 1 42.4519 1H33.5096C32.6923 1 32.3558 1.24038 32.3558 1.81731V12.1058C32.3558 12.5865 32.5962 12.8269 33.2212 12.8269H41.5385C41.7308 12.8269 41.8269 12.7788 41.875 12.6346L42.5 11.0481C42.5481 10.9519 42.5 10.9038 42.4039 10.9038H34.8077V8.78846C34.8077 8.06731 35.1923 7.73077 36.2981 7.73077H39.6154C39.8077 7.73077 39.9039 7.68269 39.9519 7.53846L40.5769 6C40.625 5.90385 40.5769 5.85577 40.4808 5.85577H34.8558V2.875H41.5865V2.92308Z" fill="black"/>
<path fill-rule="evenodd" clip-rule="evenodd" d="M25.8654 6.57693C26.8269 6.04807 27.2115 5.13461 27.2115 3.98077C27.2115 1.38461 25.0961 1 22.8846 1H17.8365C17.0192 1 16.6827 1.24039 16.6827 1.81732V12.1058C16.6827 12.5865 16.9231 12.8269 17.5481 12.8269H23.75C26.1057 12.8269 27.7404 11.9135 27.7404 9.55768C27.7885 8.11539 27.2115 6.91345 25.8654 6.57693ZM19.1827 2.875H23.0769C24.375 2.875 24.7596 3.35577 24.7596 4.36539C24.7596 5.375 24.375 5.85577 23.0769 5.85577H19.1827V2.875ZM19.1827 10.9038H23.5577C24.9519 10.9038 25.3365 10.4231 25.3365 9.31729C25.3365 8.21152 24.9519 7.68268 23.5577 7.68268H20.6731C19.5673 7.68268 19.1827 8.01923 19.1827 8.74036V10.9038Z" fill="black"/>
<path fill-rule="evenodd" clip-rule="evenodd" d="M55.3846 8.06732L58.0288 12.6346C58.0769 12.6827 58.0769 12.8269 57.9808 12.8269H55.7212C55.5288 12.8269 55.4808 12.7788 55.3846 12.6346L52.9808 8.30768H50.8173C49.7115 8.30768 49.3269 8.64423 49.3269 9.36539V12.8269H47.1635C47.0192 12.8269 46.875 12.6827 46.875 12.5385V1.81732C46.875 1.24039 47.2115 1 48.0288 1H53.0769C56.0096 1 57.7885 1.76923 57.7885 4.65384C57.7885 6.86539 56.6827 7.73077 55.3846 8.06732ZM49.2788 6.48077H53.4135C54.9519 6.48077 55.2885 5.90384 55.2885 4.65384C55.2885 3.45193 54.9519 2.875 53.4135 2.875H49.2788V6.48077Z" fill="black"/>
<path d="M76.8585 12.0096L76.8104 13.0673H68.0604V1.24039H76.4739L76.522 2.34616H69.2623V6.43269H75.5123V7.39423H69.2623V12.0096H76.8585Z" fill="#57AD56" stroke="#57AD56" stroke-width="0.25"/>
<path fill-rule="evenodd" clip-rule="evenodd" d="M84.1181 9.99039H91.0893L92.4354 13.0673H93.7816L88.3489 1.24039H86.9547L81.4739 13.0673H82.7719L84.1181 9.99039ZM84.5508 8.98077L87.0989 3.25964L87.5797 2.05771H87.6277L88.1085 3.25964L90.6085 8.98077H84.5508Z" fill="#57AD56"/>
<path d="M91.0893 9.99039L91.2038 9.94028L91.171 9.86539H91.0893V9.99039ZM84.1181 9.99039V9.86539H84.0364L84.0036 9.94028L84.1181 9.99039ZM92.4354 13.0673L92.3209 13.1174L92.3537 13.1923H92.4354V13.0673ZM93.7816 13.0673V13.1923H93.9765L93.8951 13.0151L93.7816 13.0673ZM88.3489 1.24039L88.4625 1.18821L88.429 1.11539H88.3489V1.24039ZM86.9547 1.24039V1.11539H86.8748L86.8412 1.18783L86.9547 1.24039ZM81.4739 13.0673L81.3605 13.0148L81.2782 13.1923H81.4739V13.0673ZM82.7719 13.0673V13.1923H82.8537L82.8865 13.1174L82.7719 13.0673ZM87.0989 3.25964L87.2131 3.31054L87.2149 3.30607L87.0989 3.25964ZM84.5508 8.98077L84.4366 8.92992L84.3583 9.10577H84.5508V8.98077ZM87.5797 2.05771V1.93271H87.495L87.4636 2.01128L87.5797 2.05771ZM87.6277 2.05771L87.7438 2.01129L87.7124 1.93271H87.6277V2.05771ZM88.1085 3.25964L87.9924 3.30609L87.9939 3.3097L88.1085 3.25964ZM90.6085 8.98077V9.10577H90.7995L90.723 8.93072L90.6085 8.98077ZM91.0893 9.86539H84.1181V10.1154H91.0893V9.86539ZM92.5499 13.0172L91.2038 9.94028L90.9747 10.0405L92.3209 13.1174L92.5499 13.0172ZM93.7816 12.9423H92.4354V13.1923H93.7816V12.9423ZM88.2353 1.29256L93.668 13.1195L93.8951 13.0151L88.4625 1.18821L88.2353 1.29256ZM86.9547 1.36539H88.3489V1.11539H86.9547V1.36539ZM81.5873 13.1199L87.0681 1.29294L86.8412 1.18783L81.3605 13.0148L81.5873 13.1199ZM82.7719 12.9423H81.4739V13.1923H82.7719V12.9423ZM84.0036 9.94028L82.6574 13.0172L82.8865 13.1174L84.2326 10.0405L84.0036 9.94028ZM86.9847 3.20879L84.4366 8.92992L84.665 9.03163L87.2131 3.3105L86.9847 3.20879ZM87.4636 2.01128L86.9828 3.21322L87.2149 3.30607L87.6957 2.10413L87.4636 2.01128ZM87.6277 1.93271H87.5797V2.18271H87.6277V1.93271ZM88.2246 3.21322L87.7438 2.01129L87.5117 2.10413L87.9924 3.30606L88.2246 3.21322ZM90.723 8.93072L88.223 3.20959L87.9939 3.3097L90.4939 9.03083L90.723 8.93072ZM84.5508 9.10577H90.6085V8.85577H84.5508V9.10577Z" fill="#57AD56"/>
<path d="M102.435 2.34616V13.0673H101.234V2.34616H96.8104L96.8585 1.24039H106.907V2.34616H102.435Z" fill="#57AD56" stroke="#57AD56" stroke-width="0.25"/>
<path d="M115.464 13.3077C113.83 13.3077 112.532 12.9231 111.474 12.2981L111.666 11.2404C112.772 11.8654 114.022 12.25 115.512 12.25C117.724 12.25 118.878 11.2404 118.878 9.79808C118.878 6.67308 111.666 8.30769 111.666 4.26923C111.666 2.53846 112.964 1 115.993 1C117.387 1 118.637 1.24038 119.647 1.72115L119.455 2.73077C118.349 2.29808 117.291 2.05769 116.041 2.05769C113.685 2.05769 112.82 3.11538 112.82 4.17308C112.82 7.15385 120.032 5.47115 120.032 9.70192C119.983 11.8173 118.445 13.3077 115.464 13.3077Z" fill="#57AD56" stroke="#57AD56" stroke-width="0.25"/>
</svg>
