<svg width="28" height="32" viewBox="0 0 28 32" fill="none" xmlns="http://www.w3.org/2000/svg">
<path fill-rule="evenodd" clip-rule="evenodd" d="M26.5 16.5H23.5C23.1022 16.5 22.7206 16.3419 22.4393 16.0605C22.158 15.7792 22 15.3978 22 15V9C22 8.60218 22.158 8.22076 22.4393 7.93945C22.7206 7.65815 23.1022 7.5 23.5 7.5H26.5C26.8978 7.5 27.2794 7.65815 27.5607 7.93945C27.842 8.22076 28 8.60218 28 9V15C28 15.3978 27.842 15.7792 27.5607 16.0605C27.2794 16.3419 26.8978 16.5 26.5 16.5V16.5ZM23.5 1.5C23.5 1.10218 23.658 0.720758 23.9393 0.439453C24.2206 0.158149 24.6022 0 25 0C25.3978 0 25.7794 0.158149 26.0607 0.439453C26.342 0.720758 26.5 1.10218 26.5 1.5V6H23.5V1.5ZM15.5 24.5H12.5C12.1022 24.5 11.7206 24.3419 11.4393 24.0605C11.158 23.7792 11 23.3978 11 23V17C11 16.6022 11.158 16.2208 11.4393 15.9395C11.7206 15.6581 12.1022 15.5 12.5 15.5H15.5C15.8978 15.5 16.2794 15.6581 16.5607 15.9395C16.842 16.2208 17 16.6022 17 17V23C17 23.3978 16.842 23.7792 16.5607 24.0605C16.2794 24.3419 15.8978 24.5 15.5 24.5ZM12.5 1.5C12.5 1.10218 12.658 0.720758 12.9393 0.439453C13.2206 0.158149 13.6022 0 14 0C14.3978 0 14.7794 0.158149 15.0607 0.439453C15.342 0.720758 15.5 1.10218 15.5 1.5V14H12.5V1.5ZM4.5 20.5H1.5C1.10218 20.5 0.720636 20.3419 0.439331 20.0605C0.158026 19.7792 0 19.3978 0 19V13C0 12.6022 0.158026 12.2208 0.439331 11.9395C0.720636 11.6581 1.10218 11.5 1.5 11.5H4.5C4.89782 11.5 5.27936 11.6581 5.56067 11.9395C5.84197 12.2208 6 12.6022 6 13V19C6 19.3978 5.84197 19.7792 5.56067 20.0605C5.27936 20.3419 4.89782 20.5 4.5 20.5ZM1.5 1.5C1.5 1.10218 1.65803 0.720758 1.93933 0.439453C2.22064 0.158149 2.60218 0 3 0C3.39782 0 3.77936 0.158149 4.06067 0.439453C4.34197 0.720758 4.5 1.10218 4.5 1.5V10H1.5V1.5ZM4.5 30.5C4.5 30.8978 4.34197 31.2792 4.06067 31.5605C3.77936 31.8419 3.39782 32 3 32C2.60218 32 2.22064 31.8419 1.93933 31.5605C1.65803 31.2792 1.5 30.8978 1.5 30.5V22H4.5V30.5ZM15.5 30.5C15.5 30.8978 15.342 31.2792 15.0607 31.5605C14.7794 31.8419 14.3978 32 14 32C13.6022 32 13.2206 31.8419 12.9393 31.5605C12.658 31.2792 12.5 30.8978 12.5 30.5V26H15.5V30.5ZM26.5 30.5C26.5 30.8978 26.342 31.2792 26.0607 31.5605C25.7794 31.8419 25.3978 32 25 32C24.6022 32 24.2206 31.8419 23.9393 31.5605C23.658 31.2792 23.5 30.8978 23.5 30.5V18H26.5V30.5Z" fill="#95E1D3"/>
</svg>
