<svg width="30" height="30" viewBox="0 0 30 30" fill="none" xmlns="http://www.w3.org/2000/svg">
<g clip-path="url(#clip0_8_16)">
<path fill-rule="evenodd" clip-rule="evenodd" d="M30 24C29.9984 24.3093 29.9015 24.6105 29.7226 24.8628C29.5436 25.1151 29.2914 25.3061 29 25.4099V27.0901C29.2398 27.1736 29.4545 27.3167 29.6239 27.5059C29.7934 27.6951 29.912 27.9241 29.9687 28.1716C30.0254 28.4192 30.0182 28.6771 29.948 28.9211C29.8778 29.1652 29.7467 29.3876 29.5671 29.5671C29.3875 29.7467 29.1653 29.8778 28.9212 29.948C28.6772 30.0182 28.4193 30.0254 28.1717 29.9687C27.9242 29.9121 27.695 29.7934 27.5058 29.624C27.3166 29.4546 27.1736 29.2398 27.09 29H25.41C25.3076 29.292 25.1171 29.5451 24.8647 29.7241C24.6122 29.9031 24.3104 29.9993 24.001 29.9993C23.6915 29.9993 23.3897 29.9031 23.1373 29.7241C22.8849 29.5451 22.6943 29.292 22.592 29H20.908C20.8062 29.2923 20.6159 29.5456 20.3636 29.7248C20.1113 29.9041 19.8095 30.0005 19.5 30.0005C19.1905 30.0005 18.8886 29.9041 18.6363 29.7248C18.384 29.5456 18.1938 29.2923 18.092 29H16.408C16.3062 29.2923 16.1159 29.5456 15.8636 29.7248C15.6113 29.9041 15.3095 30.0005 15 30.0005C14.6905 30.0005 14.3886 29.9041 14.1363 29.7248C13.884 29.5456 13.6938 29.2923 13.592 29H11.908C11.8062 29.2923 11.6159 29.5456 11.3636 29.7248C11.1113 29.9041 10.8095 30.0005 10.5 30.0005C10.1905 30.0005 9.88863 29.9041 9.63634 29.7248C9.38404 29.5456 9.19379 29.2923 9.09197 29H7.40801C7.30618 29.2923 7.11593 29.5456 6.86363 29.7248C6.61134 29.9041 6.30949 30.0005 5.99999 30.0005C5.69048 30.0005 5.38863 29.9041 5.13634 29.7248C4.88404 29.5456 4.69379 29.2923 4.59197 29H2.90801C2.82454 29.24 2.68143 29.4549 2.49217 29.6245C2.30292 29.7941 2.07373 29.9128 1.82604 29.9695C1.57834 30.0262 1.32028 30.0191 1.0761 29.9487C0.831914 29.8784 0.609565 29.7472 0.429978 29.5674C0.250391 29.3876 0.119432 29.1652 0.0493628 28.9209C-0.0207069 28.6766 -0.0275708 28.4185 0.0294043 28.1709C0.0863793 27.9233 0.205339 27.6942 0.375107 27.5051C0.544875 27.316 0.759891 27.1733 0.999985 27.0901V25.4099C0.707705 25.3075 0.454484 25.1169 0.275315 24.8643C0.0961458 24.6117 -0.000136755 24.3097 -0.000136755 24C-0.000136755 23.6903 0.0961458 23.3883 0.275315 23.1357C0.454484 22.8831 0.707705 22.6925 0.999985 22.5901V20.9099C0.707705 20.8075 0.454484 20.6169 0.275315 20.3643C0.0961458 20.1117 -0.000136755 19.8097 -0.000136755 19.5C-0.000136755 19.1903 0.0961458 18.8883 0.275315 18.6357C0.454484 18.3831 0.707705 18.1925 0.999985 18.0901V16.4099C0.707705 16.3075 0.454484 16.1169 0.275315 15.8643C0.0961458 15.6117 -0.000136755 15.3097 -0.000136755 15C-0.000136755 14.6903 0.0961458 14.3883 0.275315 14.1357C0.454484 13.8831 0.707705 13.6925 0.999985 13.5901V11.9099C0.707705 11.8075 0.454484 11.6169 0.275315 11.3643C0.0961458 11.1117 -0.000136755 10.8097 -0.000136755 10.5C-0.000136755 10.1903 0.0961458 9.88834 0.275315 9.63574C0.454484 9.38314 0.707705 9.19247 0.999985 9.09009V7.40991C0.707705 7.30753 0.454484 7.11686 0.275315 6.86425C0.0961458 6.61165 -0.000136755 6.30969 -0.000136755 6C-0.000136755 5.6903 0.0961458 5.38834 0.275315 5.13574C0.454484 4.88314 0.707705 4.69247 0.999985 4.59008V2.90991C0.759891 2.82669 0.544875 2.68395 0.375107 2.49487C0.205339 2.30579 0.0863793 2.07674 0.0294043 1.8291C-0.0275708 1.58146 -0.0207069 1.32335 0.0493628 1.0791C0.119432 0.834842 0.250391 0.612389 0.429978 0.432614C0.609565 0.252839 0.831914 0.121592 1.0761 0.0512662C1.32028 -0.0190592 1.57834 -0.0262013 1.82604 0.0305143C2.07373 0.0872299 2.30292 0.205915 2.49217 0.375485C2.68143 0.545055 2.82454 0.759989 2.90801 0.999997H4.59197C4.69379 0.707724 4.88404 0.454415 5.13634 0.275143C5.38863 0.0958716 5.69048 -0.000491574 5.99999 -0.000491574C6.30949 -0.000491574 6.61134 0.0958716 6.86363 0.275143C7.11593 0.454415 7.30618 0.707724 7.40801 0.999997H9.09197C9.19379 0.707724 9.38404 0.454415 9.63634 0.275143C9.88863 0.0958716 10.1905 -0.000491574 10.5 -0.000491574C10.8095 -0.000491574 11.1113 0.0958716 11.3636 0.275143C11.6159 0.454415 11.8062 0.707724 11.908 0.999997H13.592C13.6938 0.707724 13.884 0.454415 14.1363 0.275143C14.3886 0.0958716 14.6905 -0.000491574 15 -0.000491574C15.3095 -0.000491574 15.6113 0.0958716 15.8636 0.275143C16.1159 0.454415 16.3062 0.707724 16.408 0.999997H18.092C18.1938 0.707724 18.384 0.454415 18.6363 0.275143C18.8886 0.0958716 19.1905 -0.000491574 19.5 -0.000491574C19.8095 -0.000491574 20.1113 0.0958716 20.3636 0.275143C20.6159 0.454415 20.8062 0.707724 20.908 0.999997H22.592C22.6943 0.707951 22.8849 0.454894 23.1373 0.275876C23.3897 0.0968576 23.6915 0.000729129 24.001 0.000729129C24.3104 0.000729129 24.6122 0.0968576 24.8647 0.275876C25.1171 0.454894 25.3076 0.707951 25.41 0.999997H27.09C27.1736 0.760166 27.3166 0.545397 27.5058 0.375973C27.695 0.20655 27.9242 0.0879274 28.1717 0.0312467C28.4193 -0.025434 28.6772 -0.018227 28.9212 0.0519987C29.1653 0.122224 29.3875 0.253274 29.5671 0.432858C29.7467 0.612442 29.8778 0.834786 29.948 1.07885C30.0182 1.32292 30.0254 1.5808 29.9687 1.82837C29.912 2.07593 29.7934 2.30494 29.6239 2.49414C29.4545 2.68334 29.2398 2.82635 29 2.90991V4.59008C29.2923 4.69247 29.5455 4.88314 29.7247 5.13574C29.9038 5.38834 30.0001 5.6903 30.0001 6C30.0001 6.30969 29.9038 6.61165 29.7247 6.86425C29.5455 7.11686 29.2923 7.30753 29 7.40991V9.09009C29.2923 9.19247 29.5455 9.38314 29.7247 9.63574C29.9038 9.88834 30.0001 10.1903 30.0001 10.5C30.0001 10.8097 29.9038 11.1117 29.7247 11.3643C29.5455 11.6169 29.2923 11.8075 29 11.9099V13.5901C29.2923 13.6925 29.5455 13.8831 29.7247 14.1357C29.9038 14.3883 30.0001 14.6903 30.0001 15C30.0001 15.3097 29.9038 15.6117 29.7247 15.8643C29.5455 16.1169 29.2923 16.3075 29 16.4099V18.0901C29.2923 18.1925 29.5455 18.3831 29.7247 18.6357C29.9038 18.8883 30.0001 19.1903 30.0001 19.5C30.0001 19.8097 29.9038 20.1117 29.7247 20.3643C29.5455 20.6169 29.2923 20.8075 29 20.9099V22.5901C29.2914 22.6939 29.5436 22.8849 29.7226 23.1372C29.9015 23.3895 29.9984 23.6907 30 24V24ZM26 4H3.99999V26H26V4ZM13 20L20 11.5L24.5 18.5V24.5H5.49999L11.5 18.5L13 20ZM9.99999 13C9.40664 13 8.82665 12.824 8.3333 12.4944C7.83995 12.1647 7.45538 11.6961 7.22832 11.1479C7.00125 10.5998 6.94185 9.99674 7.0576 9.41479C7.17336 8.83285 7.45909 8.29822 7.87865 7.87866C8.2982 7.4591 8.83278 7.17337 9.41472 7.05761C9.99666 6.94186 10.5999 7.00121 11.1481 7.22827C11.6962 7.45533 12.1647 7.8399 12.4944 8.33325C12.824 8.8266 13 9.40665 13 10C13 10.7956 12.6839 11.5587 12.1213 12.1213C11.5587 12.6839 10.7956 13 9.99999 13V13Z" fill="#95E1D3"/>
</g>
<defs>
<clipPath id="clip0_8_16">
<rect width="30" height="30" fill="white"/>
</clipPath>
</defs>
</svg>
