<svg width="20" height="26" viewBox="0 0 20 26" fill="none" xmlns="http://www.w3.org/2000/svg">
<path fill-rule="evenodd" clip-rule="evenodd" d="M8.15216 16.6511C7.94316 17.4911 7.73216 18.3611 7.51416 19.2111C7.33101 20.0498 7.09111 20.8747 6.79614 21.6809C6.3099 22.96 5.61997 24.1523 4.75311 25.2111C4.17811 25.8711 4.30013 25.611 4.12713 25.571C3.99513 25.541 3.98413 25.4112 3.95813 25.2312C3.86401 24.1197 3.86637 23.0019 3.96514 21.8908C4.04707 20.7176 4.24434 19.5556 4.55413 18.4211C5.03813 16.3511 5.50013 14.3312 5.98913 12.2512C6.04225 12.1102 6.07266 11.9613 6.07916 11.8107C5.8597 11.2662 5.71536 10.6945 5.65014 10.111C5.57852 9.45797 5.62559 8.79714 5.78912 8.16084C5.89061 7.64614 6.11617 7.16432 6.44622 6.75655C6.77628 6.34877 7.20084 6.02751 7.6831 5.821C7.96667 5.72544 8.26673 5.68853 8.565 5.7126C8.86327 5.73667 9.15357 5.82134 9.41815 5.96114C9.64185 6.0951 9.83472 6.27479 9.98413 6.48848C10.1335 6.70217 10.2361 6.94479 10.2852 7.20088C10.3938 7.82936 10.3665 8.47397 10.2051 9.09102C9.93814 10.311 9.58712 11.2311 9.26812 12.4011C9.05323 12.9788 8.98824 13.6015 9.07916 14.2111C9.19162 14.7287 9.49378 15.1851 9.92614 15.4909C10.3978 15.8286 10.9725 15.9913 11.5511 15.9509C12.0822 15.9036 12.5959 15.7382 13.0546 15.4665C13.5133 15.1948 13.9054 14.824 14.2021 14.3811C15.1761 12.9989 15.7551 11.3776 15.8771 9.69112C15.9588 9.02442 15.9822 8.35162 15.9471 7.68086C15.9033 6.54931 15.5095 5.45911 14.8201 4.56074C14.1684 3.75699 13.2949 3.16241 12.3081 2.85078C11.0932 2.48843 9.8113 2.40976 8.56115 2.6208C7.52011 2.77562 6.53106 3.17676 5.6762 3.79073C4.82135 4.40469 4.12534 5.21402 3.64611 6.15108C3.08541 7.19951 2.7976 8.37185 2.80914 9.56075C2.78151 10.443 3.01754 11.3134 3.48712 12.0607C3.62012 12.2607 3.81513 12.4308 3.94513 12.6608C4.04191 13.0496 3.9998 13.46 3.82611 13.821C3.71611 14.251 3.70413 14.831 3.20813 14.841C2.97871 14.8158 2.75932 14.733 2.57013 14.6008C1.91012 14.2008 1.34929 13.6567 0.929806 13.009C0.510321 12.3612 0.243088 11.6269 0.148128 10.861C-0.0493761 9.79343 -0.0493761 8.69867 0.148128 7.63106C0.406581 6.35372 0.932187 5.14554 1.69049 4.08565C2.44879 3.02575 3.42267 2.13818 4.54815 1.48116C5.7478 0.777766 7.07631 0.321783 8.45514 0.140823C8.98702 0.0651666 9.52298 0.0218712 10.0601 0.0109403C11.5445 -0.0598667 13.0252 0.213754 14.3861 0.810745C15.5187 1.31134 16.5339 2.04414 17.3661 2.96114C18.229 3.90508 18.8573 5.03911 19.2001 6.27119C19.4453 7.0107 19.5802 7.7819 19.6002 8.56075C19.5659 9.35814 19.4628 10.1512 19.2921 10.9309C19.1347 12.2134 18.7122 13.4494 18.0515 14.5598C17.3908 15.6702 16.5063 16.6309 15.4542 17.3811C14.2646 18.1479 12.8686 18.5319 11.4542 18.4812C10.758 18.4392 10.0802 18.2409 9.47113 17.9011C8.92333 17.6158 8.46643 17.1828 8.15216 16.6511V16.6511Z" fill="#F38181"/>
</svg>
