<svg width="32" height="31" viewBox="0 0 32 31" fill="none" xmlns="http://www.w3.org/2000/svg">
<path fill-rule="evenodd" clip-rule="evenodd" d="M31.996 16C31.9972 16.2924 31.9126 16.5788 31.7525 16.8235C31.5925 17.0682 31.3641 17.2606 31.0957 17.3767C30.8273 17.4928 30.5308 17.5275 30.2428 17.4766C29.9549 17.4256 29.6882 17.2912 29.476 17.0901V17.1001L16.037 3.65991L15.999 3.62012L2.553 17.0701C2.27058 17.3438 1.89334 17.4978 1.50002 17.5C1.10219 17.5 0.720653 17.3419 0.439348 17.0605C0.158043 16.7792 1.69643e-05 16.3978 1.69643e-05 16C-0.000950179 15.798 0.0394453 15.5981 0.11873 15.4124C0.198015 15.2266 0.314509 15.0589 0.461015 14.9199L14.919 0.459961C15.0593 0.314949 15.2273 0.199614 15.4129 0.120605C15.5986 0.0415973 15.7982 0.000558356 16 0H16.092C16.115 0 16.137 0.0100098 16.16 0.0100098C16.5178 0.0479655 16.8495 0.215035 17.093 0.47998V0.47998L22.993 6.37988V5C22.993 4.60218 23.151 4.22076 23.4323 3.93945C23.7136 3.65815 24.0952 3.5 24.493 3.5C24.8908 3.5 25.2724 3.65815 25.5537 3.93945C25.835 4.22076 25.993 4.60218 25.993 5V9.37988L31.593 14.98C31.8525 15.2561 31.9967 15.621 31.996 16ZM28.996 18.5V29C28.996 29.3978 28.838 29.7792 28.5567 30.0605C28.2754 30.3419 27.8938 30.5 27.496 30.5H24.496V18.5H18.496V30.5H4.49599C4.09816 30.5 3.71662 30.3419 3.43532 30.0605C3.15402 29.7792 2.99599 29.3978 2.99599 29V18.5L15.996 5.5L28.996 18.5ZM13.496 18.5H7.49599V24.5H13.496V18.5Z" fill="#95E1D3"/>
</svg>
