<svg width="32" height="32" viewBox="0 0 32 32" fill="none" xmlns="http://www.w3.org/2000/svg">
<path fill-rule="evenodd" clip-rule="evenodd" d="M30.5 32H1.5C1.10218 32 0.720636 31.8419 0.439331 31.5605C0.158026 31.2792 0 30.8978 0 30.5V1.5C0 1.10218 0.158026 0.720758 0.439331 0.439453C0.720636 0.158149 1.10218 0 1.5 0H30.5C30.8978 0 31.2794 0.158149 31.5607 0.439453C31.842 0.720758 32 1.10218 32 1.5V30.5C32 30.8978 31.842 31.2792 31.5607 31.5605C31.2794 31.8419 30.8978 32 30.5 32ZM29 3H3V29H29V3ZM6.5 4.5H12C12.3978 4.5 12.7794 4.65815 13.0607 4.93945C13.342 5.22076 13.5 5.60218 13.5 6C13.5 6.39782 13.342 6.77924 13.0607 7.06055C12.7794 7.34185 12.3978 7.5 12 7.5H7.5V12C7.5 12.3978 7.34197 12.7792 7.06067 13.0605C6.77936 13.3419 6.39782 13.5 6 13.5C5.60218 13.5 5.22064 13.3419 4.93933 13.0605C4.65803 12.7792 4.5 12.3978 4.5 12V6.5V4.5H6.5ZM4.5 20C4.5 19.6022 4.65803 19.2208 4.93933 18.9395C5.22064 18.6581 5.60218 18.5 6 18.5C6.39782 18.5 6.77936 18.6581 7.06067 18.9395C7.34197 19.2208 7.5 19.6022 7.5 20V24.5H12C12.3978 24.5 12.7794 24.6581 13.0607 24.9395C13.342 25.2208 13.5 25.6022 13.5 26C13.5 26.3978 13.342 26.7792 13.0607 27.0605C12.7794 27.3419 12.3978 27.5 12 27.5H4.5V25.5V20ZM20 4.5H27.5V6.5V12C27.5 12.3978 27.342 12.7792 27.0607 13.0605C26.7794 13.3419 26.3978 13.5 26 13.5C25.6022 13.5 25.2206 13.3419 24.9393 13.0605C24.658 12.7792 24.5 12.3978 24.5 12V7.5H20C19.6022 7.5 19.2206 7.34185 18.9393 7.06055C18.658 6.77924 18.5 6.39782 18.5 6C18.5 5.60218 18.658 5.22076 18.9393 4.93945C19.2206 4.65815 19.6022 4.5 20 4.5ZM20 24.5H24.5V20C24.5 19.6022 24.658 19.2208 24.9393 18.9395C25.2206 18.6581 25.6022 18.5 26 18.5C26.3978 18.5 26.7794 18.6581 27.0607 18.9395C27.342 19.2208 27.5 19.6022 27.5 20V25.5V27.5H20C19.6022 27.5 19.2206 27.3419 18.9393 27.0605C18.658 26.7792 18.5 26.3978 18.5 26C18.5 25.6022 18.658 25.2208 18.9393 24.9395C19.2206 24.6581 19.6022 24.5 20 24.5Z" fill="#95E1D3"/>
</svg>
