<svg width="32" height="32" viewBox="0 0 32 32" fill="none" xmlns="http://www.w3.org/2000/svg">
<path fill-rule="evenodd" clip-rule="evenodd" d="M31.065 25.8899L16.594 31.8799C16.406 31.9591 16.204 32 16 32C15.796 32 15.594 31.9591 15.406 31.8799L0.934998 25.8899C0.658561 25.7775 0.421928 25.5853 0.255371 25.3376C0.088814 25.09 -9.47545e-05 24.7984 7.57806e-08 24.5V1.5C7.57805e-08 1.10218 0.158027 0.720758 0.439331 0.439453C0.720636 0.158149 1.10218 0 1.5 0C1.69624 6.30807e-05 1.89068 0.0374984 2.073 0.110107V0.110107V0.120117H2.086L16 5.87988L29.911 0.120117H29.924V0.110107C30.1063 0.0374984 30.3008 6.30807e-05 30.497 0C30.8948 0 31.2763 0.158149 31.5576 0.439453C31.839 0.720758 31.997 1.10218 31.997 1.5V24.5C31.9973 24.7981 31.9089 25.0896 31.7429 25.3372C31.5769 25.5847 31.3409 25.777 31.065 25.8899V25.8899ZM14.5 8.5L3 3.73999V23.5L14.5 28.26V8.5ZM29 3.73999L17.5 8.5V28.26L29 23.5V3.73999ZM19.879 10.6299L25.379 8.12988C25.5752 8.04535 25.7864 8.00126 26 8C26.3445 7.99764 26.6793 8.11396 26.9481 8.32935C27.217 8.54473 27.4035 8.84617 27.4763 9.18286C27.5492 9.51955 27.5039 9.87096 27.3482 10.1782C27.1924 10.4855 26.9356 10.7299 26.621 10.8701V10.8701L21.121 13.3701C20.9248 13.4545 20.7136 13.4986 20.5 13.5C20.1555 13.5024 19.8207 13.386 19.5519 13.1707C19.283 12.9553 19.0965 12.6538 19.0237 12.3171C18.9508 11.9804 18.9961 11.629 19.1518 11.3218C19.3076 11.0145 19.5644 10.7701 19.879 10.6299V10.6299ZM19.879 16.1299L25.379 13.6299C25.5752 13.5453 25.7864 13.5013 26 13.5C26.3445 13.4976 26.6793 13.614 26.9481 13.8293C27.217 14.0447 27.4035 14.3462 27.4763 14.6829C27.5492 15.0196 27.5039 15.371 27.3482 15.6782C27.1924 15.9855 26.9356 16.2299 26.621 16.3701L21.121 18.8701V18.8601C20.927 18.9524 20.7148 19.0001 20.5 19C20.1555 19.0024 19.8207 18.886 19.5519 18.6707C19.283 18.4553 19.0965 18.1538 19.0237 17.8171C18.9508 17.4804 18.9961 17.129 19.1518 16.8218C19.3076 16.5145 19.5644 16.2701 19.879 16.1299V16.1299ZM19.879 21.6299L25.379 19.1299C25.5752 19.0453 25.7864 19.0013 26 19C26.3445 18.9976 26.6793 19.114 26.9481 19.3293C27.217 19.5447 27.4035 19.8462 27.4763 20.1829C27.5492 20.5196 27.5039 20.871 27.3482 21.1782C27.1924 21.4855 26.9356 21.7299 26.621 21.8701V21.8701L21.121 24.3701C20.9248 24.4545 20.7136 24.4986 20.5 24.5C20.1555 24.5024 19.8207 24.386 19.5519 24.1707C19.283 23.9553 19.0965 23.6538 19.0237 23.3171C18.9508 22.9804 18.9961 22.629 19.1518 22.3218C19.3076 22.0145 19.5644 21.7701 19.879 21.6299ZM6 8C6.2136 8.00145 6.42476 8.04553 6.621 8.12988V8.12988L12.121 10.6299C12.4356 10.7701 12.6924 11.0145 12.8482 11.3218C13.0039 11.629 13.0492 11.9804 12.9763 12.3171C12.9035 12.6538 12.717 12.9553 12.4481 13.1707C12.1793 13.386 11.8445 13.5024 11.5 13.5C11.2864 13.4987 11.0752 13.4547 10.879 13.3701V13.3701L5.379 10.8701C5.06436 10.7299 4.80759 10.4855 4.65182 10.1782C4.49606 9.87096 4.45083 9.51955 4.52368 9.18286C4.59653 8.84617 4.78303 8.54473 5.05188 8.32935C5.32073 8.11396 5.65552 7.99764 6 8V8ZM6 13.5C6.2136 13.5014 6.42476 13.5455 6.621 13.6299V13.6299L12.121 16.1299C12.4356 16.2701 12.6924 16.5145 12.8482 16.8218C13.0039 17.129 13.0492 17.4804 12.9763 17.8171C12.9035 18.1538 12.717 18.4553 12.4481 18.6707C12.1793 18.886 11.8445 19.0024 11.5 19C11.2851 19.0003 11.073 18.9525 10.879 18.8601V18.8701L5.379 16.3701C5.06436 16.2299 4.80759 15.9855 4.65182 15.6782C4.49606 15.371 4.45083 15.0196 4.52368 14.6829C4.59653 14.3462 4.78303 14.0447 5.05188 13.8293C5.32073 13.614 5.65552 13.4976 6 13.5V13.5ZM6 19C6.2136 19.0014 6.42476 19.0455 6.621 19.1299V19.1299L12.121 21.6299C12.4356 21.7701 12.6924 22.0145 12.8482 22.3218C13.0039 22.629 13.0492 22.9804 12.9763 23.3171C12.9035 23.6538 12.717 23.9553 12.4481 24.1707C12.1793 24.386 11.8445 24.5024 11.5 24.5C11.2864 24.4987 11.0752 24.4547 10.879 24.3701V24.3701L5.379 21.8701C5.06436 21.7299 4.80759 21.4855 4.65182 21.1782C4.49606 20.871 4.45083 20.5196 4.52368 20.1829C4.59653 19.8462 4.78303 19.5447 5.05188 19.3293C5.32073 19.114 5.65552 18.9976 6 19V19Z" fill="#95E1D3"/>
</svg>
