<svg width="32" height="31" viewBox="0 0 32 31" fill="none" xmlns="http://www.w3.org/2000/svg">
<g clip-path="url(#clip0_5_6)">
<path fill-rule="evenodd" clip-rule="evenodd" d="M30.74 9.49991C29.1491 5.79889 26.1986 2.84949 22.497 1.25992C23.6252 0.369414 25.041 -0.0760799 26.4758 0.00796593C27.9106 0.0920118 29.2647 0.699843 30.2812 1.71597C31.2977 2.7321 31.9059 4.08586 31.9905 5.52066C32.075 6.95546 31.6301 8.3714 30.74 9.49991V9.49991ZM30.5 15.9999C30.5005 19.6985 29.082 23.2562 26.537 25.9398L28.566 27.9699C28.7734 28.1772 28.9145 28.4413 28.9717 28.7289C29.0289 29.0165 28.9994 29.3147 28.8871 29.5856C28.7748 29.8565 28.5847 30.0879 28.3408 30.2506C28.0969 30.4134 27.8102 30.5001 27.517 30.4999C27.1247 30.4983 26.7485 30.3441 26.468 30.07L24.29 27.8898C21.8618 29.587 18.9711 30.4981 16.0086 30.4999C13.046 30.5017 10.1543 29.5941 7.72399 27.8998L5.561 30.06C5.42269 30.2033 5.25724 30.3177 5.07427 30.3964C4.8913 30.4751 4.69449 30.5164 4.49532 30.5182C4.29615 30.52 4.09862 30.4822 3.91424 30.4069C3.72986 30.3316 3.56231 30.2203 3.42141 30.0795C3.2805 29.9387 3.16907 29.7714 3.09356 29.5871C3.01805 29.4028 2.97998 29.2052 2.98162 29.006C2.98326 28.8068 3.02455 28.61 3.10308 28.4269C3.18161 28.2439 3.29579 28.0783 3.43899 27.9398L5.45098 25.9298C3.82956 24.2075 2.65429 22.1146 2.02773 19.8336C1.40117 17.5527 1.34236 15.1531 1.85644 12.8441C2.37051 10.5352 3.44184 8.38724 4.97695 6.58756C6.51206 4.78787 8.46428 3.39117 10.6633 2.51944C12.8622 1.64771 15.2412 1.32729 17.5924 1.58634C19.9436 1.84538 22.1957 2.67597 24.1522 4.00552C26.1086 5.33508 27.71 7.1233 28.8165 9.21402C29.9229 11.3047 30.5009 13.6344 30.5 15.9999V15.9999ZM16 4.49991C13.7255 4.49991 11.5021 5.17426 9.61092 6.4379C7.71976 7.70153 6.2458 9.49768 5.37539 11.599C4.50498 13.7004 4.27724 16.0128 4.72097 18.2436C5.1647 20.4743 6.25997 22.5234 7.86828 24.1317C9.47658 25.74 11.5257 26.8352 13.7565 27.279C15.9872 27.7227 18.2995 27.4948 20.4008 26.6244C22.5022 25.754 24.2982 24.2802 25.5619 22.3891C26.8255 20.4979 27.5 18.2744 27.5 15.9999C27.5 12.9499 26.2884 10.0247 24.1317 7.86807C21.975 5.71141 19.05 4.49991 16 4.49991V4.49991ZM22 17.4999H16C15.6022 17.4999 15.2206 17.3418 14.9393 17.0605C14.658 16.7792 14.5 16.3977 14.5 15.9999V7.99991C14.5 7.60208 14.658 7.22067 14.9393 6.93936C15.2206 6.65806 15.6022 6.49991 16 6.49991C16.3978 6.49991 16.7794 6.65806 17.0607 6.93936C17.342 7.22067 17.5 7.60208 17.5 7.99991V14.4999H22C22.3978 14.4999 22.7794 14.6581 23.0607 14.9394C23.342 15.2207 23.5 15.6021 23.5 15.9999C23.5 16.3977 23.342 16.7792 23.0607 17.0605C22.7794 17.3418 22.3978 17.4999 22 17.4999V17.4999ZM1.28698 9.70987C0.375616 8.55746 -0.0807258 7.11046 0.00459965 5.64371C0.0899251 4.17696 0.710997 2.79254 1.74984 1.75357C2.78868 0.714606 4.17293 0.0934656 5.63967 0.00796593C7.10641 -0.0775338 8.55346 0.378723 9.70599 1.28995C5.92187 2.91039 2.90697 5.92556 1.28698 9.70987V9.70987Z" fill="#95E1D3"/>
</g>
<defs>
<clipPath id="clip0_5_6">
<rect width="32" height="30.5" fill="white"/>
</clipPath>
</defs>
</svg>
