<svg width="32" height="32" viewBox="0 0 32 32" fill="none" xmlns="http://www.w3.org/2000/svg">
<path fill-rule="evenodd" clip-rule="evenodd" d="M30.5 32H1.5C1.10218 32 0.720636 31.8419 0.439331 31.5605C0.158026 31.2792 0 30.8978 0 30.5V1.5C0 1.10218 0.158026 0.720758 0.439331 0.439453C0.720636 0.158149 1.10218 0 1.5 0H30.5C30.8978 0 31.2794 0.158149 31.5607 0.439453C31.842 0.720758 32 1.10218 32 1.5V30.5C32 30.8978 31.842 31.2792 31.5607 31.5605C31.2794 31.8419 30.8978 32 30.5 32ZM29 3H3V29H29V3ZM5.21503 16.24L9.21503 13.74C9.46112 13.5911 9.74431 13.515 10.0319 13.5203C10.3194 13.5256 10.5996 13.6122 10.84 13.77H10.846L17.477 18.1899L25.115 12.79C25.4372 12.5563 25.8391 12.4599 26.2323 12.5225C26.6255 12.585 26.9777 12.8013 27.2115 13.1235C27.4453 13.4458 27.5415 13.8476 27.4789 14.2407C27.4164 14.6339 27.2002 14.9862 26.878 15.22V15.22L18.378 21.22C18.1236 21.4075 17.8161 21.5092 17.5 21.51C17.1911 21.5073 16.8904 21.4095 16.639 21.23L9.98199 16.8L6.84698 18.76C6.5964 18.9282 6.30177 19.0186 6 19.02C5.67274 19.0207 5.35424 18.9143 5.09308 18.717C4.83192 18.5198 4.6424 18.2427 4.55347 17.9277C4.46453 17.6128 4.48109 17.2773 4.60052 16.9727C4.71996 16.668 4.93576 16.4106 5.21503 16.24V16.24Z" fill="#95E1D3"/>
</svg>
