<svg width="31" height="28" viewBox="0 0 31 28" fill="none" xmlns="http://www.w3.org/2000/svg">
<path fill-rule="evenodd" clip-rule="evenodd" d="M29.5 23H20V25.5L22 27.5V28H9V27.5L11 25.5V23H1.5C1.10218 23 0.720636 22.8419 0.439331 22.5605C0.158026 22.2792 0 21.8978 0 21.5V1.5C0 1.10218 0.158026 0.720758 0.439331 0.439453C0.720636 0.158149 1.10218 0 1.5 0H29.5C29.8978 0 30.2794 0.158149 30.5607 0.439453C30.842 0.720758 31 1.10218 31 1.5V21.5C31 21.8978 30.842 22.2792 30.5607 22.5605C30.2794 22.8419 29.8978 23 29.5 23ZM29 2H2V19H29V2ZM12.5 9C12.8976 9.0009 13.2787 9.15902 13.5601 9.43994L14.5 10.3799L17.4399 7.43994C17.5773 7.29257 17.7429 7.17451 17.9269 7.09253C18.1109 7.01055 18.3096 6.96644 18.511 6.96289C18.7124 6.95934 18.9125 6.99634 19.0992 7.07178C19.286 7.14722 19.4556 7.25942 19.598 7.40186C19.7405 7.54429 19.8528 7.7141 19.9282 7.90088C20.0037 8.08766 20.0408 8.28761 20.0372 8.48901C20.0337 8.69042 19.9896 8.889 19.9076 9.073C19.8256 9.257 19.7074 9.42273 19.5601 9.56006L15.5601 13.5601C15.2788 13.841 14.8975 13.9988 14.5 13.9988C14.1025 13.9988 13.7212 13.841 13.4399 13.5601L11.4399 11.5601C11.2304 11.3503 11.0878 11.083 11.03 10.7922C10.9723 10.5014 11.0021 10.2002 11.1155 9.92627C11.2289 9.65234 11.4209 9.41801 11.6674 9.25317C11.9138 9.08833 12.2035 9.00026 12.5 9Z" fill="#95E1D3"/>
</svg>
