<svg width="26" height="21" viewBox="0 0 26 21" fill="none" xmlns="http://www.w3.org/2000/svg">
<path fill-rule="evenodd" clip-rule="evenodd" d="M17.409 0.00638293C18.1786 -0.0310907 18.9473 0.0967631 19.6633 0.381383C20.3794 0.666003 21.0261 1.10068 21.56 1.65629C22.501 1.50305 23.4101 1.19543 24.251 0.746129L24.904 0.386266C24.5883 1.35679 23.9978 2.21505 23.204 2.85648C23.032 3.0197 22.8377 3.1574 22.627 3.26615V3.2764C23.6541 3.16855 24.6575 2.89824 25.6 2.47611V2.48636C25.1187 3.25681 24.5174 3.94552 23.819 4.5264C23.546 4.7464 23.272 4.9663 22.999 5.1763C23.0446 6.30851 22.9631 7.44215 22.756 8.55619C21.444 14.4462 17.968 18.446 12.467 20.166C10.0495 20.8582 7.50179 20.9645 5.035 20.4761C3.98022 20.2241 2.94778 19.8865 1.948 19.4663C1.43429 19.2461 0.937305 18.9888 0.460999 18.6963C0.306999 18.6063 0.154 18.506 0 18.416C0.556344 18.4871 1.11802 18.5072 1.67801 18.4761C2.19501 18.3961 2.70101 18.4164 3.17801 18.3164C4.28139 18.1032 5.34459 17.7184 6.32901 17.1763C6.84528 16.9358 7.32444 16.6224 7.75198 16.2461C7.21865 16.2445 6.68972 16.15 6.189 15.9663C5.41104 15.7031 4.70498 15.2624 4.12668 14.6792C3.54838 14.0961 3.1137 13.3866 2.85699 12.6065C3.63681 12.7493 4.43897 12.7113 5.202 12.4961C4.58119 12.4125 3.99105 12.1754 3.48499 11.8062C2.70828 11.348 2.06896 10.6898 1.63391 9.89994C1.19886 9.11005 0.984065 8.21778 1.01199 7.31644C1.19199 7.39644 1.37099 7.48644 1.54999 7.56644C1.90402 7.71025 2.27297 7.81428 2.64999 7.8765C2.88041 7.95685 3.12742 7.97706 3.36798 7.93607H3.34201C3.07801 7.63607 2.64698 7.42623 2.38098 7.09623C1.82028 6.45363 1.42086 5.68673 1.21582 4.85892C1.01078 4.03111 1.00604 3.16647 1.202 2.33646C1.33268 1.85825 1.52212 1.39796 1.76599 0.966344C1.77499 0.966344 1.78299 0.97611 1.79199 0.97611C1.92748 1.1777 2.08661 1.36264 2.26599 1.5264C2.72772 2.08471 3.25219 2.58802 3.82901 3.0264C5.69739 4.54659 7.89569 5.60835 10.248 6.1265C11.0191 6.322 11.8105 6.42562 12.606 6.43607C12.4036 5.62407 12.4122 4.77408 12.631 3.96634C12.8203 3.18954 13.1873 2.4673 13.7032 1.85648C14.2191 1.24566 14.8698 0.762912 15.604 0.446324C15.9792 0.286344 16.37 0.165836 16.77 0.0864611C16.982 0.0564611 17.196 0.0363829 17.409 0.00638293Z" fill="#F38181"/>
</svg>
